<svg width="118" height="88" viewBox="0 0 118 88" fill="none" xmlns="http://www.w3.org/2000/svg">
<g clip-path="url(#clip0_130_56)">
<path d="M74.8447 0.941986H43.1553C19.3213 0.941986 0 20.3916 0 44.384C0 68.3763 19.3213 87.826 43.1553 87.826H74.8447C98.6787 87.826 118 68.3763 118 44.384C118 20.3916 98.6787 0.941986 74.8447 0.941986Z" fill="#45526C"/>
<path fill-rule="evenodd" clip-rule="evenodd" d="M43.1553 19.734H74.8447C88.3686 19.734 99.332 30.7702 99.332 44.384C99.332 57.9977 88.3686 69.034 74.8447 69.034H43.1553C29.6314 69.034 18.668 57.9977 18.668 44.384C18.668 30.7702 29.6314 19.734 43.1553 19.734ZM43.1553 24.084C32.0179 24.084 22.9893 33.1726 22.9893 44.384C22.9893 55.5954 32.0179 64.684 43.1553 64.684H74.8447C85.9821 64.684 95.0107 55.5954 95.0107 44.384C95.0107 33.1726 85.9821 24.084 74.8447 24.084H43.1553ZM43.1553 51.634C47.1329 51.634 50.3574 48.3881 50.3574 44.384C50.3574 40.3799 47.1329 37.134 43.1553 37.134C39.1776 37.134 35.9531 40.3799 35.9531 44.384C35.9531 48.3881 39.1776 51.634 43.1553 51.634ZM43.1553 55.984C49.5194 55.984 54.6787 50.7904 54.6787 44.384C54.6787 37.9775 49.5194 32.784 43.1553 32.784C36.7911 32.784 31.6318 37.9775 31.6318 44.384C31.6318 50.7904 36.7911 55.984 43.1553 55.984ZM82.0469 44.384C82.0469 48.3881 78.8224 51.634 74.8447 51.634C70.8671 51.634 67.6426 48.3881 67.6426 44.384C67.6426 40.3799 70.8671 37.134 74.8447 37.134C78.8224 37.134 82.0469 40.3799 82.0469 44.384ZM86.3682 44.384C86.3682 50.7904 81.2089 55.984 74.8447 55.984C68.4806 55.984 63.3213 50.7904 63.3213 44.384C63.3213 37.9775 68.4806 32.784 74.8447 32.784C81.2089 32.784 86.3682 37.9775 86.3682 44.384Z" fill="#F8F5F1"/>
</g>
<defs>
<clipPath id="clip0_130_56">
<rect width="118" height="87" fill="white" transform="translate(0 0.941986)"/>
</clipPath>
</defs>
</svg>
