<svg width="34" height="18" viewBox="0 0 34 18" fill="none" xmlns="http://www.w3.org/2000/svg">
<path d="M2 7.85C1.36487 7.85 0.85 8.36487 0.85 9C0.85 9.63513 1.36487 10.15 2 10.15L2 7.85ZM32.6769 9.81317C33.126 9.36407 33.126 8.63593 32.6769 8.18682L25.3584 0.86827C24.9093 0.419167 24.1811 0.419167 23.732 0.86827C23.2829 1.31737 23.2829 2.04551 23.732 2.49462L30.2374 9L23.732 15.5054C23.2829 15.9545 23.2829 16.6826 23.732 17.1317C24.1811 17.5808 24.9093 17.5808 25.3584 17.1317L32.6769 9.81317ZM2 10.15L31.8638 10.15L31.8638 7.85L2 7.85L2 10.15Z" fill="black"/>
</svg>
