<svg width="53" height="53" viewBox="0 0 53 53" fill="none" xmlns="http://www.w3.org/2000/svg">
<rect x="0.279297" y="0.279541" width="52.4409" height="52.4409" rx="26.2205" fill="white"/>
<path d="M17.2734 24.75C16.5831 24.75 16.0234 25.3096 16.0234 26C16.0234 26.6904 16.5831 27.25 17.2734 27.25V24.75ZM38.6244 26.8839C39.1126 26.3957 39.1126 25.6043 38.6244 25.1161L30.6695 17.1612C30.1813 16.673 29.3899 16.673 28.9017 17.1612C28.4136 17.6493 28.4136 18.4408 28.9017 18.9289L35.9728 26L28.9017 33.0711C28.4136 33.5592 28.4136 34.3507 28.9017 34.8388C29.3899 35.327 30.1813 35.327 30.6695 34.8388L38.6244 26.8839ZM17.2734 27.25H37.7406V24.75H17.2734V27.25Z" fill="black"/>
</svg>
