<svg width="39" height="39" viewBox="0 0 39 39" fill="none" xmlns="http://www.w3.org/2000/svg">
<path d="M2.84187 30.9192L17.7841 3.61661C17.9523 3.30848 18.2005 3.05133 18.5024 2.87219C18.8044 2.69305 19.149 2.59851 19.5001 2.59851C19.8512 2.59851 20.1958 2.69305 20.4977 2.87219C20.7997 3.05133 21.0478 3.30848 21.2161 3.61661L36.1583 30.9192C36.321 31.2166 36.4033 31.5512 36.3973 31.8901C36.3912 32.229 36.2969 32.5605 36.1237 32.8518C35.9505 33.1432 35.7043 33.3843 35.4094 33.5515C35.1146 33.7187 34.7812 33.8061 34.4423 33.8052H4.55787C4.21891 33.8061 3.88557 33.7187 3.59072 33.5515C3.29586 33.3843 3.04968 33.1432 2.87644 32.8518C2.70321 32.5605 2.60891 32.229 2.60285 31.8901C2.59679 31.5512 2.67917 31.2166 2.84187 30.9192ZM21.5801 20.8L22.6279 14.5132C22.6588 14.3271 22.6489 14.1364 22.5987 13.9545C22.5486 13.7726 22.4594 13.6037 22.3374 13.4598C22.2154 13.3158 22.0636 13.2001 21.8924 13.1207C21.7212 13.0413 21.5348 13.0001 21.3461 13H17.6541C17.4654 13.0001 17.2789 13.0413 17.1077 13.1207C16.9365 13.2001 16.7847 13.3158 16.6627 13.4598C16.5407 13.6037 16.4516 13.7726 16.4014 13.9545C16.3513 14.1364 16.3413 14.3271 16.3723 14.5132L17.4201 20.8H21.5801ZM22.3601 25.74C22.3601 24.9815 22.0587 24.254 21.5224 23.7177C20.986 23.1813 20.2586 22.88 19.5001 22.88C18.7415 22.88 18.0141 23.1813 17.4777 23.7177C16.9414 24.254 16.6401 24.9815 16.6401 25.74C16.6401 26.4985 16.9414 27.226 17.4777 27.7623C18.0141 28.2987 18.7415 28.6 19.5001 28.6C20.2586 28.6 20.986 28.2987 21.5224 27.7623C22.0587 27.226 22.3601 26.4985 22.3601 25.74Z" fill="black"/>
</svg>
