<svg width="51" height="51" viewBox="0 0 51 51" fill="none" xmlns="http://www.w3.org/2000/svg">
<rect width="51" height="51" rx="25.5" fill="white"/>
<path d="M15.2445 24.4757C20.9328 21.8438 24.7254 20.1075 26.6223 19.2673C32.0448 16.8678 33.1719 16.4468 33.9136 16.4167C34.0767 16.4104 34.4409 16.4426 34.6822 16.6289C34.8829 16.786 34.9433 17.0034 34.9744 17.1562C35.0025 17.309 35.0443 17.6576 35.0227 17.931C34.7974 21.0533 33.6842 28.6428 33.1102 32.1471C32.8695 33.6298 32.3358 34.1372 31.8104 34.1974C30.6675 34.3285 29.7799 33.4867 28.6552 32.7854C26.8963 31.6876 25.9013 31.0022 24.1923 29.9309C22.2177 28.6929 23.464 27.9597 24.5464 26.7833C24.829 26.4754 29.7683 21.776 29.8544 21.3579C29.8655 21.3056 29.8735 21.1114 29.7542 21.0118C29.638 20.9118 29.4694 20.9508 29.3469 20.9813C29.1723 21.0246 26.4459 22.9182 21.1585 26.662C20.3856 27.2197 19.6804 27.4989 19.0397 27.4995C18.3374 27.5003 16.9742 27.1481 15.9601 26.8439C14.7196 26.4705 13.7327 26.2806 13.8036 25.5973C13.8387 25.2417 14.32 24.8677 15.2445 24.4757Z" fill="#080808"/>
</svg>
