<svg width="52" height="52" viewBox="0 0 52 52" fill="none" xmlns="http://www.w3.org/2000/svg">
<rect width="51.1914" height="51.1914" rx="25.5957" fill="white"/>
<path d="M25.9677 33.4475C31.3392 33.4475 35.6915 29.0952 35.6915 23.7238C35.6915 18.3523 31.3392 14 25.9677 14C20.5963 14 16.2439 18.3523 16.2439 23.7238C16.2439 29.0952 20.5963 33.4475 25.9677 33.4475ZM24.9299 18.5533V17.768C24.9299 17.3379 25.2758 16.9919 25.7059 16.9919H26.2248C26.6549 16.9919 27.0009 17.3379 27.0009 17.768V18.5627C27.7255 18.6001 28.4267 18.8479 29.0111 19.2826C29.2729 19.4743 29.3009 19.8576 29.0672 20.082L28.3052 20.8066C28.1275 20.9796 27.8611 20.9843 27.6507 20.8534C27.3982 20.6944 27.1177 20.615 26.8186 20.615H25C24.5793 20.615 24.238 20.9983 24.238 21.4705C24.238 21.8538 24.4718 22.1951 24.8037 22.2933L27.7161 23.1675C28.9176 23.5274 29.7591 24.6821 29.7591 25.9771C29.7591 27.5665 28.5249 28.8521 26.9962 28.8942V29.6796C26.9962 30.1097 26.6503 30.4556 26.2202 30.4556H25.7013C25.2712 30.4556 24.9252 30.1097 24.9252 29.6796V28.8849C24.2006 28.8475 23.4994 28.5997 22.915 28.1649C22.6532 27.9732 22.6252 27.5899 22.8589 27.3655L23.6209 26.6409C23.7986 26.4679 24.065 26.4633 24.2754 26.5942C24.5279 26.7531 24.8083 26.8326 25.1075 26.8326H26.9261C27.3468 26.8326 27.6881 26.4492 27.6881 25.9771C27.6881 25.5937 27.4543 25.2525 27.1224 25.1543L24.21 24.2801C23.0085 23.9201 22.167 22.7654 22.167 21.4705C22.1717 19.881 23.4012 18.5954 24.9299 18.5533ZM36.4395 30.4556H34.9201C34.0039 31.6711 32.8351 32.6855 31.5075 33.4475H34.49C34.7378 33.4475 34.9388 33.6158 34.9388 33.8215V34.5695C34.9388 34.7752 34.7378 34.9435 34.49 34.9435H17.4407C17.193 34.9435 16.9919 34.7752 16.9919 34.5695V33.8215C16.9919 33.6158 17.193 33.4475 17.4407 33.4475H20.4233C19.0956 32.6855 17.9316 31.6711 17.0106 30.4556H15.496C14.6685 30.4556 14 31.1241 14 31.9516V36.4395C14 37.2669 14.6685 37.9354 15.496 37.9354H36.4395C37.2669 37.9354 37.9354 37.2669 37.9354 36.4395V31.9516C37.9354 31.1241 37.2669 30.4556 36.4395 30.4556Z" fill="#080808"/>
</svg>
