<svg width="52" height="52" viewBox="0 0 52 52" fill="none" xmlns="http://www.w3.org/2000/svg">
<rect width="51.1914" height="51.1914" rx="25.5957" fill="white"/>
<path d="M15.5 20.1666V18.552C15.5 18.0145 15.6801 17.5661 16.0402 17.2068C16.4003 16.8475 16.8483 16.6674 17.3842 16.6666H34.6158C35.1525 16.6666 35.6005 16.8467 35.9598 17.2068C36.3192 17.5669 36.4992 18.0153 36.5 18.552V20.1666H35.3333V18.552C35.3333 18.342 35.2661 18.1697 35.1315 18.0351C34.9969 17.9006 34.8251 17.8333 34.6158 17.8333H17.3842C17.1749 17.8333 17.0031 17.9006 16.8685 18.0351C16.7339 18.1697 16.6667 18.342 16.6667 18.552V20.1666H15.5ZM22.5 35.3333V33H17.3853C16.8479 33 16.3995 32.8203 16.0402 32.461C15.6808 32.1016 15.5008 31.6528 15.5 31.1146V29.5H16.6667V31.1158C16.6667 31.325 16.7339 31.4969 16.8685 31.6315C17.0031 31.766 17.1753 31.8333 17.3853 31.8333H34.6158C34.8251 31.8333 34.9969 31.766 35.1315 31.6315C35.2661 31.4969 35.3333 31.3246 35.3333 31.1146V29.5H36.5V31.1158C36.5 31.6525 36.3203 32.1005 35.961 32.4598C35.6017 32.8191 35.1533 32.9992 34.6158 33H29.5V35.3333H22.5ZM17.152 24.8333L20.1853 21.8L19.3593 20.974L15.5 24.8333L19.3593 28.6926L20.1853 27.8666L17.152 24.8333ZM34.8492 24.8333L31.8158 27.8666L32.6407 28.6926L36.5 24.8333L32.6407 20.974L31.8158 21.8L34.8492 24.8333Z" fill="black"/>
</svg>
