<svg width="51" height="51" viewBox="0 0 51 51" fill="none" xmlns="http://www.w3.org/2000/svg">
<rect width="51" height="51" rx="25.5" fill="white"/>
<path d="M20.0819 14.4119C20.9914 14.7285 21.8563 15.1677 22.6542 15.7181C23.7818 15.4204 24.9414 15.271 26.1054 15.2735C27.3074 15.2735 28.4671 15.4284 29.5541 15.7168C30.3518 15.167 31.2163 14.7282 32.1253 14.4119C32.969 14.1159 34.171 13.6364 34.8852 14.4518C35.3694 15.0063 35.4905 15.9354 35.5764 16.6447C35.6733 17.4364 35.6963 18.4679 35.4421 19.4918C36.4141 20.7868 37 22.3315 37 24.0149C37 26.5648 35.6612 28.7789 33.6796 30.3124C32.7254 31.0403 31.6678 31.6115 30.5443 32.0057C30.8034 32.6176 30.9474 33.2944 30.9474 34.005V37.7512C30.9474 38.0824 30.8199 38.4001 30.5929 38.6342C30.3659 38.8684 30.058 39 29.7369 39H22.4739C22.1528 39 21.8449 38.8684 21.6179 38.6342C21.3909 38.4001 21.2633 38.0824 21.2633 37.7512V36.5137C20.1073 36.6598 19.1377 36.5299 18.3133 36.1691C17.4514 35.7919 16.851 35.2075 16.3995 34.6481C15.971 34.1186 15.5037 32.9248 14.8283 32.6925C14.6774 32.6407 14.5379 32.5587 14.4178 32.4513C14.2976 32.3439 14.1992 32.2131 14.128 32.0664C13.9843 31.7701 13.9606 31.4271 14.062 31.1128C14.1635 30.7985 14.3818 30.5387 14.669 30.3904C14.9561 30.2422 15.2886 30.2177 15.5933 30.3224C16.3995 30.5996 16.9249 31.199 17.2844 31.681C17.8654 32.4552 18.3375 33.4667 19.2575 33.8701C19.6364 34.0362 20.192 34.1448 21.0612 34.0224L21.2633 33.98C21.2661 33.3004 21.4033 32.6286 21.6664 32.0057C20.5429 31.6115 19.4853 31.0403 18.5312 30.3124C16.5496 28.7789 15.2108 26.5661 15.2108 24.0149C15.2108 22.334 15.7955 20.7906 16.7651 19.4968C16.5109 18.4729 16.5327 17.4389 16.6295 16.6459L16.6356 16.5985C16.7239 15.8717 16.8268 15.0163 17.3207 14.4518C18.0349 13.6364 19.2382 14.1172 20.0807 14.4131L20.0819 14.4119Z" fill="black"/>
</svg>
