<svg width="25" height="23" viewBox="0 0 25 23" fill="none" xmlns="http://www.w3.org/2000/svg">
<path d="M12.1904 5.43399L12.813 5.99153L13.415 5.41182C13.5602 5.272 13.688 5.14409 13.8079 5.0241C14.037 4.79475 14.2372 4.59432 14.475 4.39499L14.4753 4.39469C16.3382 2.83129 18.7808 2.56534 20.6269 3.5901C22.5452 4.65548 23.5053 6.89398 22.9369 9.00534L22.9369 9.00559C22.3868 11.0513 21.0368 12.7144 19.3752 14.3736L20.0111 15.0105L19.3752 14.3736C17.4145 16.3314 15.1414 17.9848 12.7532 19.5887C9.47765 17.379 6.41211 15.1283 4.1565 12.1336L4.15619 12.1332C3.12435 10.7648 2.43347 9.40278 2.40102 7.88135L2.40102 7.88129C2.35841 5.8904 3.57859 4.06414 5.40921 3.33495L5.40937 3.33489C7.24893 2.60175 9.53103 3.03849 11.1676 4.51873C11.3723 4.70398 11.5809 4.89004 11.8008 5.08609C11.9265 5.19822 12.056 5.31361 12.1904 5.43399Z" fill="#FE0135" stroke="#FE0135" stroke-width="1.8"/>
</svg>
