<svg width="38" height="35" viewBox="0 0 38 35" fill="none" xmlns="http://www.w3.org/2000/svg">
<path d="M28.9992 8.34566C27.1292 7.49499 25.1045 6.87756 22.9955 6.52083C22.977 6.52025 22.9586 6.52364 22.9416 6.53075C22.9246 6.53786 22.9094 6.54853 22.8971 6.56199C22.644 7.01477 22.3487 7.60475 22.1519 8.05753C19.9149 7.72823 17.6399 7.72823 15.4029 8.05753C15.2061 7.59103 14.9108 7.01477 14.6437 6.56199C14.6296 6.53455 14.5874 6.52083 14.5453 6.52083C12.4362 6.87756 10.4256 7.49499 8.54154 8.34566C8.52748 8.34566 8.51342 8.35938 8.49936 8.3731C4.67497 13.9573 3.62046 19.3907 4.14068 24.7691C4.14068 24.7965 4.15474 24.824 4.18287 24.8377C6.71371 26.6488 9.14613 27.7464 11.5504 28.4736C11.5926 28.4873 11.6348 28.4736 11.6489 28.4462C12.2113 27.6916 12.7174 26.8958 13.1533 26.0588C13.1814 26.0039 13.1533 25.9491 13.0971 25.9353C12.2956 25.6335 11.5364 25.2768 10.7912 24.8651C10.7349 24.8377 10.7349 24.7554 10.7771 24.7142C10.9318 24.6044 11.0864 24.481 11.2411 24.3712C11.2692 24.3438 11.3114 24.3438 11.3395 24.3575C16.1763 26.5116 21.3926 26.5116 26.1731 24.3575C26.2012 24.3438 26.2434 24.3438 26.2715 24.3712C26.4262 24.4947 26.5808 24.6044 26.7355 24.7279C26.7917 24.7691 26.7917 24.8514 26.7214 24.8789C25.9903 25.3042 25.217 25.6472 24.4156 25.9491C24.3593 25.9628 24.3453 26.0314 24.3593 26.0725C24.8092 26.9095 25.3154 27.7053 25.8638 28.4599C25.9059 28.4736 25.9481 28.4873 25.9903 28.4736C28.4087 27.7464 30.8411 26.6488 33.3719 24.8377C33.4001 24.824 33.4141 24.7965 33.4141 24.7691C34.0328 18.5537 32.3877 13.1616 29.0554 8.3731C29.0414 8.35938 29.0273 8.34566 28.9992 8.34566ZM13.8844 21.4899C12.4362 21.4899 11.227 20.1864 11.227 18.5811C11.227 16.9758 12.4081 15.6724 13.8844 15.6724C15.3748 15.6724 16.5559 16.9896 16.5418 18.5811C16.5418 20.1864 15.3608 21.4899 13.8844 21.4899ZM23.6844 21.4899C22.2362 21.4899 21.027 20.1864 21.027 18.5811C21.027 16.9758 22.2081 15.6724 23.6844 15.6724C25.1748 15.6724 26.3559 16.9896 26.3418 18.5811C26.3418 20.1864 25.1748 21.4899 23.6844 21.4899Z" fill="white"/>
</svg>
