<svg width="30" height="31" viewBox="0 0 30 31" fill="none" xmlns="http://www.w3.org/2000/svg">
<path d="M5.34564 13.0203C11.6871 10.258 15.9148 8.43682 18.0286 7.55697C24.071 5.0445 25.3251 4.60814 26.1441 4.59336C26.3242 4.59047 26.7252 4.63499 26.9869 4.84654C27.2044 5.02496 27.2656 5.26625 27.2962 5.43566C27.3233 5.60491 27.3607 5.99063 27.3301 6.29173C27.0039 9.73095 25.5867 18.0768 24.8663 21.929C24.5638 23.5589 23.9623 24.1053 23.3812 24.1587C22.1169 24.2749 21.1586 23.324 19.9351 22.5223C18.0218 21.2673 16.9411 20.4863 15.0822 19.2619C12.9344 17.8468 14.3277 17.0689 15.5512 15.7978C15.8706 15.4651 21.4372 10.4032 21.5426 9.94403C21.5562 9.8866 21.5698 9.67249 21.4406 9.55967C21.3149 9.4465 21.128 9.48524 20.9921 9.51583C20.7983 9.55933 17.7431 11.5807 11.8163 15.5797C10.9497 16.1757 10.1646 16.4663 9.45775 16.451C8.68291 16.4344 7.1876 16.0119 6.07631 15.651C4.71693 15.2082 3.63283 14.9741 3.72799 14.222C3.77557 13.8305 4.31592 13.4298 5.34564 13.0203Z" fill="white"/>
</svg>
