<svg width="48" height="48" viewBox="0 0 48 48" fill="none" xmlns="http://www.w3.org/2000/svg">
<rect x="0.620972" y="0.69165" width="47" height="47" rx="23.5" fill="#D9D9D9"/>
<path d="M11.0465 23.1627C17.348 20.2472 21.5494 18.3238 23.6508 17.393C29.6578 14.7348 30.9064 14.2685 31.728 14.2351C31.9086 14.2282 32.3121 14.2638 32.5795 14.4702C32.8018 14.6443 32.8686 14.885 32.9032 15.0544C32.9343 15.2236 32.9805 15.6098 32.9567 15.9127C32.7071 19.3715 31.4738 27.779 30.838 31.6611C30.5714 33.3036 29.9801 33.8657 29.3981 33.9324C28.132 34.0776 27.1488 33.145 25.9028 32.3682C23.9543 31.152 22.8521 30.3928 20.9589 29.206C18.7714 27.8345 20.1521 27.0223 21.3511 25.7191C21.6642 25.378 27.1359 20.1721 27.2313 19.7089C27.2436 19.651 27.2524 19.4358 27.1203 19.3255C26.9915 19.2148 26.8048 19.2579 26.6691 19.2917C26.4757 19.3397 23.4554 21.4374 17.598 25.5847C16.7419 26.2025 15.9606 26.5119 15.2509 26.5125C14.4729 26.5134 12.9627 26.1233 11.8393 25.7863C10.4651 25.3726 9.37189 25.1622 9.45036 24.4053C9.48924 24.0113 10.0224 23.597 11.0465 23.1627Z" fill="#3282B8"/>
</svg>
