<svg width="47" height="47" viewBox="0 0 47 47" fill="none" xmlns="http://www.w3.org/2000/svg">
<path d="M23.5 0C20.4139 0 17.3581 0.622937 14.5069 1.83324C11.6558 3.04355 9.06517 4.81752 6.88299 7.05387C2.47589 11.5704 0 17.6961 0 24.0834C0 34.7283 6.7445 43.7596 16.074 46.9627C17.249 47.1554 17.625 46.4088 17.625 45.7585V41.6884C11.1155 43.1334 9.729 38.4612 9.729 38.4612C8.648 35.6676 7.1205 34.921 7.1205 34.921C4.982 33.4278 7.285 33.476 7.285 33.476C9.635 33.6446 10.8805 35.9566 10.8805 35.9566C12.925 39.6172 16.3795 38.5335 17.719 37.9555C17.9305 36.3901 18.5415 35.3304 19.1995 34.7283C13.9825 34.1262 8.507 32.055 8.507 22.8793C8.507 20.206 9.4 18.0626 10.9275 16.3527C10.6925 15.7506 9.87 13.2459 11.1625 9.99462C11.1625 9.99462 13.1365 9.34437 17.625 12.4511C19.4815 11.9213 21.5025 11.6564 23.5 11.6564C25.4975 11.6564 27.5185 11.9213 29.375 12.4511C33.8635 9.34437 35.8375 9.99462 35.8375 9.99462C37.13 13.2459 36.3075 15.7506 36.0725 16.3527C37.6 18.0626 38.493 20.206 38.493 22.8793C38.493 32.0791 32.994 34.1021 27.7535 34.7042C28.5995 35.4508 29.375 36.9199 29.375 39.1597V45.7585C29.375 46.4088 29.751 47.1794 30.9495 46.9627C40.279 43.7355 47 34.7283 47 24.0834C47 20.9208 46.3922 17.789 45.2112 14.8671C44.0302 11.9452 42.2992 9.29023 40.117 7.05387C37.9348 4.81752 35.3442 3.04355 32.4931 1.83324C29.6419 0.622937 26.5861 0 23.5 0Z" fill="white"/>
</svg>
