<svg width="47" height="47" viewBox="0 0 47 47" fill="none" xmlns="http://www.w3.org/2000/svg">
<rect width="47" height="47" rx="23.5" fill="white"/>
<path d="M10.4256 22.4711C16.727 19.5555 20.9284 17.6321 23.0298 16.7013C29.0368 14.0432 30.2854 13.5769 31.107 13.5435C31.2877 13.5365 31.6911 13.5721 31.9585 13.7785C32.1808 13.9526 32.2477 14.1934 32.2822 14.3627C32.3133 14.5319 32.3596 14.9182 32.3357 15.221C32.0861 18.6798 30.8529 27.0874 30.217 30.9695C29.9504 32.612 29.3591 33.174 28.7771 33.2407C27.5111 33.386 26.5278 32.4534 25.2819 31.6766C23.3334 30.4604 22.2311 29.7011 20.3379 28.5144C18.1504 27.1429 19.5311 26.3307 20.7301 25.0275C21.0432 24.6864 26.515 19.4804 26.6103 19.0173C26.6226 18.9593 26.6314 18.7442 26.4993 18.6339C26.3705 18.5232 26.1838 18.5663 26.0481 18.6C25.8547 18.6481 22.8344 20.7458 16.9771 24.8931C16.1209 25.5109 15.3396 25.8202 14.6299 25.8209C13.8519 25.8217 12.3418 25.4316 11.2184 25.0946C9.84416 24.681 8.75091 24.4705 8.82938 23.7137C8.86827 23.3197 9.40147 22.9054 10.4256 22.4711Z" fill="#3282B8"/>
</svg>
